<?xml version="1.0" encoding="utf-8"?>
<!-- Generator: Adobe Illustrator 22.1.0, SVG Export Plug-In . SVG Version: 6.00 Build 0)  -->
<svg version="1.1" xmlns="http://www.w3.org/2000/svg" xmlns:xlink="http://www.w3.org/1999/xlink" x="0px" y="0px"
	 viewBox="0 0 100 100" style="enable-background:new 0 0 100 100;" xml:space="preserve">
<style type="text/css">
	.st0{display:none;}
	.st1{display:inline;}
	.st2{fill:#F05861;}
	.st3{fill:#9654A1;}
	.st4{fill:#ED1C64;}
	.st5{fill:#70C281;}
	.st6{fill:#202020;}
	.st7{fill:#FFFFFF;}
	.st8{fill:#00B4E7;}
</style>
<g id="Layer_1" class="st0">
	<g class="st1">
		<g>
			<g>
				<polygon class="st2" points="77.2,50 50.6,34.6 50.6,65.4 				"/>
			</g>
			<g>
				<rect x="29.8" y="42.5" class="st2" width="29.7" height="15"/>
			</g>
			<g>
				<path class="st2" d="M50,100C22.4,100,0,77.6,0,50S22.4,0,50,0s50,22.4,50,50S77.6,100,50,100z M50,8.9
					C27.3,8.9,8.9,27.3,8.9,50S27.3,91.1,50,91.1S91.1,72.7,91.1,50S72.7,8.9,50,8.9z"/>
			</g>
		</g>
	</g>
</g>
<g id="Layer_2">
	<g>
		<g>
			<g>
				<polygon class="st3" points="77.2,50 50.6,34.6 50.6,65.4 				"/>
			</g>
			<g>
				<rect x="29.8" y="42.5" class="st3" width="29.7" height="15"/>
			</g>
			<g>
				<path class="st3" d="M50,100C22.4,100,0,77.6,0,50S22.4,0,50,0s50,22.4,50,50S77.6,100,50,100z M50,8.9
					C27.3,8.9,8.9,27.3,8.9,50S27.3,91.1,50,91.1S91.1,72.7,91.1,50S72.7,8.9,50,8.9z"/>
			</g>
		</g>
	</g>
</g>
<g id="Layer_3" class="st0">
	<g class="st1">
		<g>
			<polygon class="st4" points="77.2,50 50.6,34.6 50.6,65.4 			"/>
		</g>
		<g>
			<rect x="29.8" y="42.5" class="st4" width="29.7" height="15"/>
		</g>
		<g>
			<path class="st4" d="M50,100C22.4,100,0,77.6,0,50S22.4,0,50,0s50,22.4,50,50S77.6,100,50,100z M50,8.9C27.3,8.9,8.9,27.3,8.9,50
				S27.3,91.1,50,91.1S91.1,72.7,91.1,50S72.7,8.9,50,8.9z"/>
		</g>
	</g>
</g>
<g id="Layer_4" class="st0">
	<g class="st1">
		<g>
			<g>
				<polygon class="st5" points="77.2,50 50.6,34.6 50.6,65.4 				"/>
			</g>
			<g>
				<rect x="29.8" y="42.5" class="st5" width="29.7" height="15"/>
			</g>
			<g>
				<path class="st5" d="M50,100C22.4,100,0,77.6,0,50S22.4,0,50,0s50,22.4,50,50S77.6,100,50,100z M50,8.9
					C27.3,8.9,8.9,27.3,8.9,50S27.3,91.1,50,91.1S91.1,72.7,91.1,50S72.7,8.9,50,8.9z"/>
			</g>
		</g>
	</g>
</g>
<g id="Layer_5" class="st0">
	<g class="st1">
		<g>
			<g>
				<polygon class="st6" points="77.2,50 50.6,34.6 50.6,65.4 				"/>
			</g>
			<g>
				<rect x="29.8" y="42.5" class="st6" width="29.7" height="15"/>
			</g>
			<g>
				<path class="st6" d="M50,100C22.4,100,0,77.6,0,50S22.4,0,50,0s50,22.4,50,50S77.6,100,50,100z M50,8.9
					C27.3,8.9,8.9,27.3,8.9,50S27.3,91.1,50,91.1S91.1,72.7,91.1,50S72.7,8.9,50,8.9z"/>
			</g>
		</g>
	</g>
</g>
<g id="Layer_6" class="st0">
	<g class="st1">
		<g>
			<g>
				<polygon class="st7" points="77.2,50 50.6,34.6 50.6,65.4 				"/>
			</g>
			<g>
				<rect x="29.8" y="42.5" class="st7" width="29.7" height="15"/>
			</g>
			<g>
				<path class="st7" d="M50,100C22.4,100,0,77.6,0,50S22.4,0,50,0s50,22.4,50,50S77.6,100,50,100z M50,8.9
					C27.3,8.9,8.9,27.3,8.9,50S27.3,91.1,50,91.1S91.1,72.7,91.1,50S72.7,8.9,50,8.9z"/>
			</g>
		</g>
	</g>
</g>
<g id="Layer_7" class="st0">
	<g class="st1">
		<g>
			<g>
				<polygon class="st8" points="77.2,50 50.6,34.6 50.6,65.4 				"/>
			</g>
			<g>
				<rect x="29.8" y="42.5" class="st8" width="29.7" height="15"/>
			</g>
			<g>
				<path class="st8" d="M50,100C22.4,100,0,77.6,0,50S22.4,0,50,0s50,22.4,50,50S77.6,100,50,100z M50,8.9
					C27.3,8.9,8.9,27.3,8.9,50S27.3,91.1,50,91.1S91.1,72.7,91.1,50S72.7,8.9,50,8.9z"/>
			</g>
		</g>
	</g>
</g>
</svg>
