<?xml version="1.0" standalone="no"?>
<!DOCTYPE svg PUBLIC "-//W3C//DTD SVG 20010904//EN"
 "http://www.w3.org/TR/2001/REC-SVG-20010904/DTD/svg10.dtd">
<svg version="1.0" xmlns="http://www.w3.org/2000/svg"
 width="260.000000pt" height="260.000000pt" viewBox="0 0 260.000000 260.000000"
 preserveAspectRatio="xMidYMid meet">
<metadata>
Created by potrace 1.11, written by Peter Selinger 2001-2013
</metadata>
<g transform="translate(0.000000,260.000000) scale(0.100000,-0.100000)"
fill="#000000" stroke="none">
<path d="M1095 2544 c-359 -64 -667 -268 -861 -571 -71 -111 -149 -305 -169
-423 -4 -19 -11 -57 -15 -85 -10 -53 -6 -317 5 -375 76 -408 318 -736 680
-920 182 -93 357 -133 575 -133 591 2 1092 404 1225 985 23 99 29 170 28 298
-2 314 -125 615 -343 844 -176 185 -371 298 -625 362 -126 32 -372 41 -500 18z
m395 -48 c29 -7 67 -15 95 -20 60 -13 170 -53 247 -91 374 -185 628 -543 674
-950 8 -71 7 -236 -1 -285 -49 -300 -143 -494 -337 -696 -223 -232 -534 -365
-858 -366 -127 0 -167 4 -287 32 -471 110 -833 499 -917 985 -12 73 -15 333
-3 375 2 8 7 33 11 55 14 73 67 228 103 299 173 343 497 587 873 656 92 17
335 21 400 6z"/>
<path d="M1248 2316 c-14 -8 -55 -25 -90 -39 -158 -64 -583 -248 -591 -256
-11 -11 -286 -682 -294 -717 -4 -19 40 -136 118 -314 11 -25 57 -132 102 -239
l83 -193 84 -35 c47 -19 212 -86 368 -149 l283 -114 227 96 c125 53 289 122
366 154 76 32 139 60 140 62 2 3 84 205 222 548 l75 186 -91 214 c-50 118
-119 280 -153 360 -33 80 -63 149 -67 153 -10 11 -721 297 -739 297 -9 0 -28
-6 -43 -14z m254 -88 l181 -73 20 -45 c11 -25 31 -70 44 -100 25 -54 73 -178
73 -187 0 -2 -4 -2 -8 1 -7 4 -267 -99 -362 -143 -19 -9 -36 -40 -75 -136 -27
-68 -52 -122 -56 -120 -3 3 -30 60 -59 129 l-53 124 -193 77 c-180 72 -192 79
-184 99 24 63 53 134 69 170 9 23 26 60 35 83 12 27 28 46 47 53 16 7 27 16
24 20 -3 5 5 6 17 2 16 -4 19 -2 13 8 -5 8 -4 11 3 7 12 -8 44 2 37 12 -2 4 6
7 18 7 12 -1 21 4 20 11 -2 7 4 10 12 7 14 -6 43 5 140 51 17 7 36 14 43 14 7
1 94 -32 194 -71z m-593 -149 c-16 -40 -36 -87 -43 -104 -8 -16 -24 -58 -37
-92 l-24 -62 -175 -75 -175 -75 -22 -53 c-11 -29 -46 -114 -76 -188 -61 -150
-61 -136 -4 -260 13 -30 37 -84 52 -120 57 -135 53 -131 140 -167 44 -17 86
-34 95 -37 65 -23 156 -66 162 -77 15 -28 138 -321 138 -330 0 -5 -17 -1 -37
9 -21 10 -99 43 -175 72 l-136 55 -151 357 -152 357 145 358 144 358 74 32
c40 18 84 37 98 42 14 6 61 26 105 45 44 19 81 33 82 32 1 -1 -11 -36 -28 -77z
m966 -3 l140 -56 68 -162 c37 -89 66 -162 65 -163 -2 -1 -72 25 -155 59 -151
59 -153 61 -169 101 -8 22 -38 92 -65 157 -53 126 -55 133 -36 125 6 -3 75
-30 152 -61z m-618 -545 c57 -132 58 -140 45 -169 -14 -29 -48 -52 -78 -52 -8
0 -69 22 -137 49 -117 47 -123 51 -145 92 -21 42 -142 324 -142 333 0 3 6 11
14 19 13 13 39 5 199 -60 l185 -75 59 -137z m583 261 c0 -16 -142 -357 -153
-369 -7 -7 -70 -37 -142 -67 -117 -49 -133 -53 -159 -42 -30 12 -63 75 -52 99
3 6 27 65 53 130 l48 119 165 69 c91 38 174 73 185 78 20 9 55 -3 55 -17z
m-1028 -67 c11 -27 27 -67 36 -89 9 -21 35 -81 57 -133 22 -53 47 -99 55 -104
8 -4 62 -27 120 -50 58 -23 109 -44 114 -46 4 -3 -20 -18 -55 -33 -35 -15 -84
-36 -109 -47 -25 -12 -54 -24 -66 -27 -14 -4 -30 -27 -47 -69 -14 -34 -46
-112 -71 -174 -25 -62 -46 -116 -46 -120 0 -4 -4 -14 -8 -21 -7 -10 -25 -6
-83 18 -41 17 -111 45 -155 62 -75 29 -83 35 -99 72 -10 23 -42 97 -72 166
-29 69 -57 134 -62 144 -5 14 8 58 46 150 30 72 64 156 76 186 22 53 23 55
102 87 44 19 90 38 103 43 12 5 41 18 65 28 61 28 72 30 75 18 2 -6 13 -33 24
-61z m1194 11 c75 -30 142 -60 150 -68 7 -7 46 -92 87 -188 l74 -175 -78 -190
-77 -190 -53 -22 c-30 -12 -74 -31 -99 -42 -25 -11 -65 -27 -90 -37 -25 -9
-50 -21 -56 -26 -8 -6 -13 1 -17 19 -2 16 -37 105 -77 200 l-73 171 -106 45
c-58 24 -117 48 -129 52 -22 6 -23 8 -5 19 10 7 61 30 113 51 52 21 104 44
116 52 11 7 33 45 48 85 15 40 36 91 45 113 10 22 31 73 46 113 16 39 32 72
36 72 5 0 70 -24 145 -54z m-677 -395 c-15 -5 -22 6 -14 19 6 9 10 9 16 -1 5
-8 4 -15 -2 -18z m5 -17 c19 -7 21 -37 3 -53 -21 -17 -51 10 -43 37 8 23 14
26 40 16z m-60 -28 c-3 -9 -10 -13 -16 -10 -5 3 -4 12 3 20 15 18 22 13 13
-10z m111 -7 c-10 -15 -25 -10 -19 6 4 8 10 12 15 9 5 -3 7 -10 4 -15z m-129
-11 c23 -8 35 -21 44 -47 10 -33 7 -45 -39 -160 -28 -69 -56 -130 -63 -137
-14 -12 -349 -154 -366 -154 -5 0 -14 6 -21 13 -8 10 8 59 63 197 l74 184 134
58 c73 32 135 58 137 58 3 0 19 -5 37 -12z m295 -42 c113 -45 135 -58 146 -82
7 -16 42 -98 78 -183 70 -165 75 -198 27 -186 -26 6 -214 80 -312 123 -50 21
-58 34 -125 199 -44 107 -41 137 16 165 19 10 35 18 35 18 1 0 62 -24 135 -54z
m-221 -2 c0 -20 -7 -17 -20 6 -9 16 -8 18 5 14 8 -4 15 -12 15 -20z m25 -131
c14 -38 38 -94 52 -126 29 -64 21 -59 228 -141 66 -26 135 -54 153 -62 l32
-14 -15 -37 c-9 -21 -39 -93 -67 -160 -37 -92 -55 -124 -71 -129 -12 -4 -95
-38 -184 -76 -127 -53 -166 -66 -180 -58 -10 5 -92 39 -183 75 l-165 65 -19
48 c-10 26 -28 67 -39 92 -26 60 -77 182 -77 186 0 2 7 4 15 4 9 0 97 34 196
76 l179 76 24 52 c12 28 36 84 51 124 15 39 31 72 36 72 4 0 19 -30 34 -67z
m733 -359 l-63 -158 -153 -64 c-85 -35 -155 -62 -157 -60 -3 2 24 74 59 159
l64 154 154 66 c84 36 154 65 156 63 2 -1 -25 -73 -60 -160z"/>
</g>
</svg>
